<?xml version="1.0" encoding="UTF-8"?><svg id="Layer_2" xmlns="http://www.w3.org/2000/svg" viewBox="0 0 233.88 150.25"><defs><style>.cls-1{fill:#173a2c;}</style></defs><g id="Layer_1-2"><g><path class="cls-1" d="M48.81,0h-13.58C25.04,0,8.49,3.18,0,6.79V115.44c0,24.19,16.55,34.8,39.47,34.8h12.73c35.44,0,60.48-30.56,60.48-76.61C112.68,23.98,84.46,0,48.81,0Zm-1.06,119.48h-2.55c-5.94,0-9.34-4.46-9.34-11.25V31.62c1.7-.21,4.25-.85,5.73-.85h6.58c16.98,0,28.65,12.52,28.65,46.47,0,28.86-10.4,42.23-29.07,42.23Z"/><path class="cls-1" d="M218.64,.4l-5.04-.4H125.89V94.12c0,35.64,21.13,56.13,52.5,56.13,34.36,0,55.49-23.05,55.49-58.9V24.12c0-15.06-5.53-22.05-15.24-23.71Z"/></g></g></svg>