<?xml version="1.0" encoding="UTF-8"?><svg id="Layer_2" xmlns="http://www.w3.org/2000/svg" viewBox="0 0 92.15 113.84"><defs><style>.cls-1{fill:#fff;}</style></defs><g id="Layer_1-2"><path class="cls-1" d="M37.71,11.21s0,.09,0,.13v26.58c0,.26-.11,.51-.3,.69L1,71.85c-1.24,1.24-1.02,2.51-.9,2.92,.02,.08,.06,.15,.1,.23,.29,.46,.7,1.06,1,1.49,.24,.33,.66,.47,1.05,.35l34.02-10.99c.6-.19,1.21,.25,1.22,.88l.31,27.3c0,.26-.11,.52-.3,.7l-14.9,13.83c-.08,.07-.14,.16-.19,.25-.92,1.68-.71,3.35-.44,4.31,.13,.48,.63,.76,1.11,.65l17.59-4.17c.39-.09,.8,.08,1.01,.42,2.55,4.14,4.06,3.83,4.06,3.83,.11,.01,.23,0,.34,0,.11,.01,.23,.01,.34,0,0,0,1.52,.3,4.06-3.83,.21-.34,.62-.51,1.01-.42l17.59,4.17c.48,.11,.98-.17,1.11-.65,.26-.96,.47-2.63-.44-4.31-.05-.09-.12-.18-.19-.25l-14.9-13.83c-.19-.18-.3-.43-.3-.7l.31-27.3c0-.63,.62-1.07,1.22-.88l34.02,10.99c.39,.13,.81-.01,1.05-.35,.3-.43,.71-1.02,1-1.49,.04-.07,.08-.14,.1-.23,.11-.41,.33-1.68-.9-2.92L54.76,38.61c-.19-.18-.3-.43-.3-.69V11.34s0-.09,0-.13c-.12-.76-1.31-8-4.89-11.21h-6.95c-3.59,3.2-4.78,10.44-4.89,11.21Z"/></g></svg>